{"title":"The Magnificent Seven - 2016 - 720p - HDTS - Dual Audio","uid":16031843,"size":890241941,"categoryP":"video","categoryS":"movies","magnet":"?xt=urn:btih:70419814bcfb124f777ee523cb5f27e7cac334c8&amp;dn=The+Magnificent+Seven+-+2016+-+720p+-+HDTS+-+Dual+Audio+&amp;tr=udp%3A%2F%2Ftracker.leechers-paradise.org%3A6969&amp;tr=udp%3A%2F%2Fzer0day.ch%3A1337&amp;tr=udp%3A%2F%2Fopen.demonii.com%3A1337&amp;tr=udp%3A%2F%2Ftracker.coppersurfer.tk%3A6969&amp;tr=udp%3A%2F%2Fexodus.desync.com%3A6969","seeders":348,"leechers":551,"uploader":"makintos13","files":1,"time":1476434737,"description":"Screens:\r\n \nhttps://imgmak.com/a4U\r\n \nhttps://imgmak.com/a43\r\n \nhttps://imgmak.com/a4G\r\n \nhttps://imgmak.com/a4H\r\n \nhttps://imgmak.com/a4v\r\n \nhttps://imgmak.com/a4y\r\n \nhttps://imgmak.com/a46\r\n\r\n\r\nFormat : Matroska\r\nFormat version : Version 4 / Version 2\r\nFile size : 849 MiB\r\nDuration : 2 h 8 min\r\nOverall bit rate : 926 kb/s\r\n\r\n\r\nVideo\r\nID : 1\r\nFormat : AVC\r\nFormat/Info : Advanced Video Codec\r\nFormat profile :   \r\nFormat settings, CABAC : Yes\r\nFormat settings, ReFrames : 4 frames\r\nCodec ID : V_MPEG4/ISO/AVC\r\nDuration : 2 h 8 min\r\nBit rate : 794 kb/s\r\nWidth : 1 280 pixels\r\nHeight : 544 pixels\r\nDisplay aspect ratio : 2.35:1\r\nFrame rate mode : Constant\r\nFrame rate : 29.970 (30000/1001) FPS\r\nColor space : YUV\r\nChroma subsampling : 4:2:0\r\nBit depth : 8 bits\r\nScan type : Progressive\r\nBits/(Pixel*Frame) : 0.038\r\nStream size : 728 MiB (86%)\r\n\r\nDefault : Yes\r\nForced : No\r\n\r\nAudio #1\r\nID : 2\r\nFormat : AAC\r\nFormat/Info : Advanced Audio Codec\r\nFormat profile : LC\r\nCodec ID : A_AAC\r\nDuration : 2 h 8 min\r\nBit rate : 64.2 kb/s\r\nChannel(s) : 2 channels\r\nChannel positions : Front: L R\r\nSampling rate : 48.0 kHz\r\nFrame rate : 46.875 FPS (1024 spf)\r\nCompression mode : Lossy\r\nDelay relative to video : 346 ms\r\nStream size : 58.9 MiB (7%)\r\nTitle : Stereo\r\nLanguage : Hindi\r\nDefault : Yes\r\nForced : No\r\n\r\nAudio #2\r\nID : 3\r\nFormat : AAC\r\nFormat/Info : Advanced Audio Codec\r\nFormat profile : LC\r\nCodec ID : A_AAC\r\nDuration : 2 h 8 min\r\nBit rate : 64.3 kb/s\r\nChannel(s) : 2 channels\r\nChannel positions : Front: L R\r\nSampling rate : 48.0 kHz\r\nFrame rate : 46.875 FPS (1024 spf)\r\nCompression mode : Lossy\r\nDelay relative to video : 346 ms\r\nStream size : 59.0 MiB (7%)\r\nTitle : Stereo\r\nLanguage : English\r\nDefault : No\r\nForced : No\r\n\r\nSource : Dr Star (thanks)","torrent":{"xt":"urn:btih:70419814bcfb124f777ee523cb5f27e7cac334c8","amp;dn":"The+Magnificent+Seven+-+2016+-+720p+-+HDTS+-+Dual+Audio+","amp;tr":["udp%3A%2F%2Ftracker.leechers-paradise.org%3A6969","udp%3A%2F%2Fzer0day.ch%3A1337","udp%3A%2F%2Fopen.demonii.com%3A1337","udp%3A%2F%2Ftracker.coppersurfer.tk%3A6969","udp%3A%2F%2Fexodus.desync.com%3A6969"],"infoHash":"70419814bcfb124f777ee523cb5f27e7cac334c8","infoHashBuffer":{"type":"Buffer","data":[112,65,152,20,188,251,18,79,119,126,229,35,203,95,39,231,202,195,52,200]},"announce":[],"urlList":[]}}